<svg width="833" height="190" viewBox="0 0 833 190" fill="none" xmlns="http://www.w3.org/2000/svg">
<path d="M233.863 176.48C231.763 175.66 229.893 174.41 228.403 172.75C227.093 170.97 226.943 168.9 226.543 166.68V0L222.483 0.37L167.953 6.09L167.993 11.47L176.233 14.27C178.353 14.99 180.403 15.71 182.083 17.22C184.883 19.75 184.523 21.85 185.133 25.5V166.26C184.433 170.86 184.363 172.65 180.313 175.18C176.903 177.31 172.553 177.11 169.593 174.36C165.973 171 164.113 166.83 162.203 162.33L157.383 148.93L154.513 140.79H109.793L114.833 156.51C115.793 159.52 116.683 162.29 117.153 165.42C117.843 169.7 116.703 173.58 112.273 175.11L102.173 178.6C100.663 179.12 99.223 179.51 97.773 180.17L97.793 185.59H243.703L243.683 180.31L233.853 176.47L233.863 176.48Z" fill="#14141A"/>
<path d="M52.533 114.67L76.393 36.66L101.423 114.67H145.313L106.933 5.78003L73.653 5.80003C71.033 15.87 67.773 25.6 64.313 35.31L25.533 140.94C21.853 150.4 16.423 165.41 9.76299 172.77C9.00299 173.61 8.36299 174.41 7.49299 175.13C6.03299 176.34 4.66299 177.51 2.93299 178.36C1.92299 178.85 1.07299 179.57 0.00299038 180V185.21C-0.00700962 185.41 0.00299038 185.56 0.11299 185.59C0.26299 185.62 0.35299 185.59 0.65299 185.59H63.803L63.783 180.09L51.263 175.75C48.523 174.8 45.243 172.95 43.713 170.47C41.483 166.85 40.543 162.73 40.813 158.38C41.193 152.34 42.713 146.54 44.493 140.79L52.543 114.65L52.533 114.67Z" fill="#14141A"/>
<path d="M516.843 173.82C515.673 172.85 514.963 171.48 514.463 169.99C514.273 169.42 514.073 166.66 513.873 165.75V15.32L484.063 18.46L476.413 37.84C476.303 38.07 476.243 38.24 476.303 38.41C476.353 38.53 476.513 38.61 476.773 38.71L513.583 52.81L508.363 53.03L504.193 53.24L500.153 53.42L495.993 53.64L491.953 53.82L487.793 54.04L483.793 54.24L479.763 54.42L475.603 54.64L471.563 54.82L467.403 55.04L463.363 55.22L459.203 55.44L455.163 55.62L451.003 55.84L446.963 56.02L442.803 56.24L438.803 56.44L434.783 56.62C434.243 56.64 428.823 56.94 428.883 56.94C427.783 56.86 426.783 56.92 425.693 57.18V48.32V25.18C425.693 24.94 425.733 24.82 425.593 24.76C425.473 24.7 425.383 24.87 425.183 24.89L395.883 27.81L389.133 46.73C388.123 49.57 387.043 52.25 385.043 54.46C383.203 56.62 380.943 57.99 378.533 59.38L367.903 65.52L367.963 70.7L384.683 70.73L384.803 159.49C384.803 164.89 386.613 169.98 388.733 174.72C391.373 179.32 394.803 183.1 399.393 185.71C403.203 187.92 407.353 188.81 411.703 189.4H418.303C425.133 188.66 431.673 186.91 437.843 183.54C443.613 180.39 448.943 176.73 453.943 172.42L449.303 164.06C447.403 164.57 445.563 164.73 443.613 164.96C437.473 165.23 430.273 165.38 427.233 158.9C426.303 156.93 426.073 154.94 425.723 152.69L425.703 70.53H451.863C452.593 70.54 453.183 70.93 453.923 70.69C458.933 71.3 463.513 73.62 466.793 77.38C470.423 81.53 471.813 86.61 471.813 91.98C471.813 92.78 472.153 101.16 472.193 101.4C472.493 103.04 472.003 104.54 472.483 106.22V166.87C472.063 168.94 472.023 170.85 470.773 172.52C469.733 173.91 468.323 175.11 466.643 175.79L455.313 180.4V185.6H531.463V180.36L521.813 176.68C519.983 175.99 518.353 175.07 516.853 173.82H516.843Z" fill="#14141A"/>
<path d="M361.923 167.41C361.013 165.85 360.833 164.09 360.563 162.35C360.403 161.29 360.673 160.38 360.343 159.29L360.173 92.83C360.163 87.34 358.823 82.01 357.093 76.95C355.703 72.88 353.583 69.41 350.803 66.22C348.203 63.22 345.043 60.97 341.543 59.1C334.703 55.46 324.653 53.36 317.043 53.02L313.013 52.84C310.523 52.73 308.053 52.75 305.533 52.78C304.733 52.79 303.953 53.07 303.113 52.95C302.493 52.86 298.343 53.23 297.313 53.32C290.113 53.94 283.123 55.01 276.073 56.68L250.323 62.79L265.123 100.87H270.363L277.563 85.36C280.173 79.73 282.303 74.25 286.453 69.44C289.973 65.35 294.663 62.91 300.133 62.47C301.683 62.35 303.063 62.27 304.593 62.42C311.163 63.06 315.163 65.59 317.623 71.85C318.613 74.97 319.423 78.05 319.433 81.43L319.553 112.65C310.173 114.39 301.133 116.39 292.063 118.98C284.653 121.1 277.543 123.6 270.613 126.91C261.483 131.32 252.723 136.91 248.243 146.31C245.913 151.19 245.083 156.6 245.423 161.95C246.093 172.45 250.813 179.68 260.173 184.67C265.633 187.58 271.543 188.77 277.593 189.11C279.263 189.2 280.853 189.25 282.533 189.14L285.503 188.93C298.703 188 310.103 181.01 320.233 172.81C321.453 178.44 324.973 182.6 330.083 185.46C338.423 189.94 349.913 188.62 358.833 186.33C364.703 184.82 370.303 182.96 375.843 180.27L375.893 175.39L366.363 171.16C364.543 170.35 362.923 169.15 361.913 167.42L361.923 167.41ZM305.523 168.46C303.513 168.62 301.743 168.69 299.703 168.47C293.683 167.83 286.963 164.97 284.463 159.09C280.643 150.12 284.043 140.55 291.493 134.58C299.443 128.05 309.893 123.76 319.523 120.01V164.1C314.893 166.5 310.683 168.05 305.533 168.45L305.523 168.46Z" fill="#14141A"/>
<path d="M823.323 176.9C819.553 175.41 815.833 173.37 815.353 168.85C815.283 168.17 815.023 167.5 815.023 166.72L814.913 85.64C814.913 81.34 814.193 77.24 813.163 73.16C812.083 68.92 810.203 65.03 807.353 61.81C801.613 55.29 793.633 53.3 785.333 52.83C783.743 52.74 782.213 52.67 780.613 52.8L778.783 52.95C773.153 53.41 767.823 54.6 762.473 56.41C755.313 58.74 748.503 61.5 741.823 64.92L730.633 70.88L730.593 52.76L690.443 58.13L672.813 60.48C672.613 60.51 672.483 60.58 672.443 60.66C672.403 60.76 672.413 60.94 672.413 61.12V65.74C672.413 65.92 672.453 66.08 672.613 66.13L682.873 69.67C684.573 70.26 686.263 71.12 687.423 72.5C689.543 75.02 689.373 79.17 689.513 79.51C689.553 79.6 689.543 79.64 689.623 79.96L689.603 166.52C689.603 167.31 689.323 167.95 689.263 168.67C689.073 170.79 688.133 172.71 686.443 174.05C685.403 174.88 684.273 175.68 683.003 176.19L672.473 180.35L672.403 185.21C672.403 185.42 672.423 185.57 672.533 185.59C672.683 185.63 672.773 185.59 673.073 185.59H746.983V180.37L736.583 176.03C732.623 174.38 731.053 170.37 731.053 166.27L730.983 79.36C730.983 79.05 730.983 78.98 731.013 78.84C731.053 78.7 731.193 78.77 731.403 78.71C738.443 76.71 745.523 75.52 752.833 75.01C757.283 74.7 763.103 74.74 767.093 76.82C768.723 77.67 770.263 78.87 771.163 80.55C772.523 83.07 773.523 86 773.523 89.04L773.543 166.28C773.543 168.42 772.993 170.58 772.133 172.38C771.243 174.24 769.423 175.44 767.573 176.21L757.643 180.34C757.483 181.69 757.543 183.01 757.573 184.41V184.81V185.21C757.573 185.42 757.523 185.6 757.823 185.6H832.163V180.4L823.293 176.9H823.323Z" fill="#14141A"/>
<path d="M608.453 52.59L605.653 52.37C602.063 52.09 598.513 52.17 594.963 52.42L592.123 52.62C577.893 53.61 562.763 59.06 551.973 68.62C550.143 70.25 548.513 71.88 546.863 73.71C537.233 84.42 531.543 100.15 530.953 114.34L530.773 118.55C530.703 120.14 530.703 121.78 530.773 123.37L530.943 127.59C531.253 135.01 532.873 142.2 535.523 149.17C542.263 166.93 555.123 179.06 573.063 185.18C580.353 187.75 587.793 188.76 595.453 189.39H605.453C606.343 189.03 607.323 189.21 608.383 189.12C618.133 188.29 626.773 186.31 635.663 182.01C645.763 177.13 653.613 170.34 659.693 160.89C663.573 154.85 666.323 148.44 668.063 141.47C669.313 136.47 670.073 131.56 670.333 126.4C670.893 115.37 669.843 104.3 666.083 93.83C657.013 68.53 634.703 54.62 608.453 52.59ZM626.333 134.74L626.193 137.84L625.993 140.44L625.773 143.2C625.103 151.55 623.113 162.4 619.023 169.77C615.323 176.45 608.993 179.79 601.443 180.04C592.753 180.33 586.083 176.7 582.073 168.97C577.853 160.83 576.023 150.09 575.323 141.01L575.083 137.87C575.013 136.91 575.053 136 574.883 135.06C574.643 133.75 575.133 132.46 574.663 131.14V109.41C575.123 108.23 574.663 107.06 574.863 105.88C575.053 104.74 574.993 103.65 575.093 102.49L575.303 100.09L575.533 97.54C576.313 88.9 578.283 78.37 582.773 70.85C586.213 65.08 592.933 61.57 599.393 61.64L601.293 61.66C608.483 61.73 614.983 65.41 618.503 71.69C620.693 75.59 622.133 79.59 623.243 83.95C624.553 89.11 625.323 94.24 625.773 99.55L626.013 102.48L626.203 105.09L626.333 108.19C626.763 118.06 626.763 124.88 626.333 134.75V134.74Z" fill="#14141A"/>
<path d="M52.5329 114.67L44.4729 140.81H154.523L145.313 114.67" fill="url(#paint0_linear_20_637)"/>
<defs>
<linearGradient id="paint0_linear_20_637" x1="154.523" y1="127.74" x2="44.4729" y2="127.74" gradientUnits="userSpaceOnUse">
<stop stop-color="#FF9901"/>
<stop offset="1" stop-color="#EA5458"/>
</linearGradient>
</defs>
</svg>
