<?xml version="1.0" encoding="utf-8"?>
<!-- Generator: Adobe Illustrator 19.1.0, SVG Export Plug-In . SVG Version: 6.00 Build 0)  -->
<svg version="1.1" id="Layer_1" xmlns="http://www.w3.org/2000/svg" xmlns:xlink="http://www.w3.org/1999/xlink" x="0px" y="0px"
	 viewBox="0 0 907 155.9" style="enable-background:new 0 0 907 155.9;" xml:space="preserve">
<style type="text/css">
	.st0{fill:#717162;}
	.st1{fill:#F37121;}
</style>
<g>
	<path class="st0" d="M711.2,36L711.2,36c0-1.2-0.9-2.1-2.1-2.1h-8c-4.2,0-7.7,3.5-7.7,7.7v1.2v6.8c0,1.1,0.9,2.1,2.1,2.1h8
		c4.3,0,7.7-3.5,7.7-7.7v-1.2V36z"/>
	<path class="st0" d="M509.3,2h-7.9c-4.3,0-7.7,3.5-7.7,7.7V152c0,1.2,0.9,2.1,2.1,2.1h7.9c4.2,0,7.7-3.5,7.7-7.7V4.1
		C511.4,3,510.5,2,509.3,2"/>
	<path class="st0" d="M709,66.4L709,66.4h-7.9c-4.2,0-7.7,3.5-7.7,7.7V152v0c0,1.2,0.9,2.1,2.1,2.1h7.9c4.2,0,7.7-3.4,7.7-7.7h0
		V68.4C711.1,67.3,710.1,66.4,709,66.4"/>
	<path class="st0" d="M475,145L475,145c-0.1-0.5-0.2-0.9-0.3-1.3L437.5,5.9h0c-0.5-2.2-2.4-3.9-4.8-3.9c-1.8,0-3.4,1-4.3,2.5
		l-76.5,145.6h0l-0.4,0.7c0,0,0,0,0,0l0,0c-0.1,0.3-0.2,0.6-0.2,1c0,1.2,1,2.1,2.1,2.1h11.8c3.1,0,5.8-1.8,7-4.5l13.5-25.8
		c1.5-3,4.5-6.5,10.7-6.5h0h43.4c3.5,0,8.5,2,10.4,7.3l6.9,27.8h0c0.2,1,1,1.7,2.1,1.7h8.3c4.3,0,7.7-3.4,7.7-7.7
		C475.1,145.9,475.1,145.5,475,145 M442.7,94.1c0.4,1.5,0.6,5.5-3.4,5.5h-34.9c-4.3,0-4-4.1-3-5.9l25-48c1.3-2.4,3.5-3.4,4.5,0.4
		L442.7,94.1z"/>
	<path class="st1" d="M338.7,0.9L225,46.1l-43.4,17.3l0-0.1c-1.7,0.8-3.6,1.3-5.7,1.3c-2.8,0-5.5-0.9-7.6-2.4l0,0l-42.5-28.7
		L88.1,8.1c-5.7-3.9-13-2-16.1,4.1L1.3,148.5c-3.2,6.1-0.5,9,5.9,6.5l118.5-47l39.6-15.7c1.5-0.6,3-0.9,4.7-0.9
		c2.9,0,5.5,0.9,7.7,2.5l0,0l47.3,31.9l32.8,22.1c5.7,3.9,13,2,16.1-4.1L344.6,7.4C347.7,1.3,345.1-1.6,338.7,0.9 M135.5,81.6
		l-9.8,3.9L51.5,115c-3.1,1.2-6.9,2.7-8,1.6c-1.2-1.2,0.5-5,2.1-8.1l34.2-65.9c1.6-3,3.9-5.9,6.8-6.7c3-0.8,6.5,0.7,9.4,2.6
		l29.8,20.1l11.9,8.1l0,0c2.1,1.6,6.4,4.5,6.4,7.3C144,77.8,138.7,80.4,135.5,81.6 M225,68.5l69.5-27.6c0.5-0.2,0.9-0.3,1.4-0.4
		c2.9-1.1,6-2.2,7-1.2c1.1,1.2-0.5,5-2.1,8.1l-34.2,65.9c-1.6,3-3.9,6-6.7,6.7c-2.2,0.6-4.6,0-6.9-1.2c-1-0.3-1.9-0.7-2.9-1.3
		l-25-16.9l-13.4-9.1c-0.4-0.4-5.8-4.3-6.1-4.8c-1.6-1.4-3.1-3.2-3.1-4.8c0-2.9,3.3-5.2,6.2-6.6L225,68.5z"/>
	<path class="st0" d="M768.7,63.6c-25.5,0-41.7,20.7-41.7,46.1s16.2,46.1,41.7,46.1c25.5,0,41.7-20.7,41.7-46.1
		S794.2,63.6,768.7,63.6z M768.7,138.7c-15.2,0-23.7-13-23.7-29s8.6-29,23.7-29c15.2,0,23.7,13,23.7,29S783.8,138.7,768.7,138.7z"/>
	<path class="st0" d="M675.1,147.4l-1.2-2.5c-2.3-4.6-7.3-7.2-12.3-6.2c-7.3,1.4-14.2,0.4-19-3.5c-4.2-3.4-5.7-7.1-5.7-18.4
		c0-4.7,0-17.7,0-31.5c0-1.2,1-2.2,2.2-2.2l23.9,0c6.6,0,12-5.4,12-12v-3c0-1.1-0.9-1.9-1.9-1.9l-34.1,0c-1.1,0-2-0.9-2-2
		c0-12.6,0-23.6,0-28.2c0-1.3-1-2.3-2.3-2.3l-7.6,0c-4.3,0-7.7,3.5-7.7,7.7c0,18.6,0,65.1,0,75.2c0,15.3,2.8,26.6,13.8,33.5
		c6.3,3.9,16.1,5.5,23.9,5.5c5.8,0,11.6-1.4,16.1-3.1C675.1,152,676.1,149.5,675.1,147.4z"/>
	<path class="st0" d="M602.6,104.3v42.3c0,4.1-3.3,7.5-7.5,7.5h-8c-1.2,0-2.1-1-2.1-2.1l0-5.5c0-0.6-0.7-0.9-1.1-0.5
		c-5.6,5.7-14.3,9.9-22.2,9.9c-10.7,0-19.1-2.4-26.1-9.5c-4.8-4.9-7.3-11.5-7.3-18.9c0-13.9,11-22.3,20.7-26.2c8.7-3.4,21-5.3,34-6
		c1,0,1.8-0.8,1.7-1.8c0-3.6-0.5-8-5.8-11.7c-7.3-5.1-16.6-4-27.1,0.3c-5.1,2.1-10.4,0.6-14.4-3.5c-0.4-0.4-1-1-1.6-1.7
		c-1.5-1.6-1.3-4.3,0.5-5.5c16.5-10.9,40.6-9.9,51.9-3C600.4,75.8,602.6,87.7,602.6,104.3z M585.1,115.1V112c0-1-0.8-1.8-1.8-1.8
		c-9.5,0.1-20.5,1.3-26.7,3.8c-5.6,2.3-10.7,6.6-10.7,13.2c0,8.2,6.8,13.1,15.1,13.2c5,0,12.2-2.3,17.9-8.8
		C582.3,127.7,585.1,123.1,585.1,115.1z"/>
	<path class="st0" d="M869.2,63.6c-9.7,0-17.6,3.8-24.4,9.4c-0.5,0.4-1.3,0.1-1.3-0.5v-4.1c0-1.2-0.9-2.1-2.1-2.1h-7.9
		c-4.2,0-7.7,3.4-7.7,7.7V152v0c0,1.2,0.9,2.1,2.1,2.1h7.9c4.2,0,7.7-3.4,7.7-7.7h0v-42.5c0-10.7,7.7-23.1,23.9-23.1
		c15.2,0.1,21.9,9.6,21.9,21.9V152c0,1.2,0.9,2.1,2.1,2.1h7.9c4.2,0,7.7-3.4,7.7-7.7v-44.3C907,76.3,889.3,63.6,869.2,63.6z"/>
</g>
</svg>
